<mxfile host="app.diagrams.net" agent="Mozilla/5.0 (Windows NT 10.0; Win64; x64) AppleWebKit/537.36 (KHTML, like Gecko) Chrome/136.0.0.0 Safari/537.36" version="27.0.6">
  <diagram name="Seite-1" id="X9A0OteI1HdwLPOekv6P">
    <mxGraphModel dx="1120" dy="1583" grid="1" gridSize="10" guides="1" tooltips="1" connect="1" arrows="1" fold="1" page="1" pageScale="1" pageWidth="827" pageHeight="1169" math="0" shadow="0">
      <root>
        <mxCell id="0" />
        <mxCell id="1" parent="0" />
        <mxCell id="DeZwMJjWuen-2JSqgglJ-1" value="" style="rounded=0;whiteSpace=wrap;html=1;" vertex="1" parent="1">
          <mxGeometry x="2" width="530" height="320" as="geometry" />
        </mxCell>
        <mxCell id="DeZwMJjWuen-2JSqgglJ-2" value="" style="rounded=0;whiteSpace=wrap;html=1;fillColor=#dae8fc;strokeColor=#6c8ebf;" vertex="1" parent="1">
          <mxGeometry x="2" width="530" height="40" as="geometry" />
        </mxCell>
        <mxCell id="DeZwMJjWuen-2JSqgglJ-4" value="DMS" style="text;html=1;align=center;verticalAlign=middle;resizable=0;points=[];autosize=1;strokeColor=none;fillColor=none;" vertex="1" parent="1">
          <mxGeometry x="2" y="5" width="50" height="30" as="geometry" />
        </mxCell>
        <mxCell id="DeZwMJjWuen-2JSqgglJ-5" value="Einstellungen" style="text;html=1;align=center;verticalAlign=middle;resizable=0;points=[];autosize=1;strokeColor=none;fillColor=none;" vertex="1" parent="1">
          <mxGeometry x="202" y="5" width="100" height="30" as="geometry" />
        </mxCell>
        <mxCell id="DeZwMJjWuen-2JSqgglJ-6" value="Dateien" style="text;strokeColor=none;align=center;fillColor=none;html=1;verticalAlign=middle;whiteSpace=wrap;rounded=0;" vertex="1" parent="1">
          <mxGeometry x="62" y="5" width="60" height="30" as="geometry" />
        </mxCell>
        <mxCell id="DeZwMJjWuen-2JSqgglJ-7" value="Verzeichnisse" style="text;html=1;align=center;verticalAlign=middle;resizable=0;points=[];autosize=1;strokeColor=none;fillColor=none;" vertex="1" parent="1">
          <mxGeometry x="112" y="5" width="100" height="30" as="geometry" />
        </mxCell>
        <mxCell id="DeZwMJjWuen-2JSqgglJ-8" value="&lt;b&gt;^&lt;/b&gt;" style="text;html=1;align=center;verticalAlign=middle;resizable=0;points=[];autosize=1;strokeColor=none;fillColor=none;rotation=-180;" vertex="1" parent="1">
          <mxGeometry x="52" y="5" width="30" height="30" as="geometry" />
        </mxCell>
        <mxCell id="DeZwMJjWuen-2JSqgglJ-9" value="&lt;b&gt;^&lt;/b&gt;" style="text;html=1;align=center;verticalAlign=middle;resizable=0;points=[];autosize=1;strokeColor=none;fillColor=none;rotation=-180;" vertex="1" parent="1">
          <mxGeometry x="107" y="5" width="30" height="30" as="geometry" />
        </mxCell>
        <mxCell id="DeZwMJjWuen-2JSqgglJ-11" value="&lt;b&gt;^&lt;/b&gt;" style="text;html=1;align=center;verticalAlign=middle;resizable=0;points=[];autosize=1;strokeColor=none;fillColor=none;rotation=-180;" vertex="1" parent="1">
          <mxGeometry x="197" y="5" width="30" height="30" as="geometry" />
        </mxCell>
        <mxCell id="DeZwMJjWuen-2JSqgglJ-12" value="" style="rounded=0;whiteSpace=wrap;html=1;" vertex="1" parent="1">
          <mxGeometry x="212" y="30" width="80" height="40" as="geometry" />
        </mxCell>
        <mxCell id="DeZwMJjWuen-2JSqgglJ-14" value="" style="rounded=0;whiteSpace=wrap;html=1;verticalAlign=middle;fillColor=#f5f5f5;fontColor=#333333;strokeColor=#666666;" vertex="1" parent="1">
          <mxGeometry x="212" y="30" width="80" height="20" as="geometry" />
        </mxCell>
        <mxCell id="DeZwMJjWuen-2JSqgglJ-13" value="&lt;font style=&quot;font-size: 10px;&quot;&gt;File Export&lt;/font&gt;" style="text;html=1;align=center;verticalAlign=middle;resizable=0;points=[];autosize=1;strokeColor=none;fillColor=none;" vertex="1" parent="1">
          <mxGeometry x="217" y="25" width="70" height="30" as="geometry" />
        </mxCell>
        <mxCell id="DeZwMJjWuen-2JSqgglJ-17" value="" style="rounded=0;whiteSpace=wrap;html=1;fillColor=#f5f5f5;fontColor=#333333;strokeColor=#666666;" vertex="1" parent="1">
          <mxGeometry x="212" y="55" width="80" height="10" as="geometry" />
        </mxCell>
        <mxCell id="DeZwMJjWuen-2JSqgglJ-15" value="&lt;span&gt;Attachment Export&lt;/span&gt;" style="text;html=1;align=center;verticalAlign=middle;resizable=0;points=[];autosize=1;strokeColor=none;fillColor=none;fontSize=9;" vertex="1" parent="1">
          <mxGeometry x="202" y="50" width="100" height="20" as="geometry" />
        </mxCell>
        <mxCell id="DeZwMJjWuen-2JSqgglJ-18" value="" style="rounded=0;whiteSpace=wrap;html=1;" vertex="1" parent="1">
          <mxGeometry x="2" y="80" width="530" height="240" as="geometry" />
        </mxCell>
        <mxCell id="DeZwMJjWuen-2JSqgglJ-19" value="" style="rounded=0;whiteSpace=wrap;html=1;fillColor=#f5f5f5;fontColor=#333333;strokeColor=#666666;" vertex="1" parent="1">
          <mxGeometry x="2" y="80" width="530" height="30" as="geometry" />
        </mxCell>
        <mxCell id="DeZwMJjWuen-2JSqgglJ-20" value="Name" style="text;html=1;align=center;verticalAlign=middle;resizable=0;points=[];autosize=1;strokeColor=none;fillColor=none;" vertex="1" parent="1">
          <mxGeometry x="2" y="80" width="60" height="30" as="geometry" />
        </mxCell>
        <mxCell id="DeZwMJjWuen-2JSqgglJ-21" value="Start Date" style="text;html=1;align=center;verticalAlign=middle;resizable=0;points=[];autosize=1;strokeColor=none;fillColor=none;" vertex="1" parent="1">
          <mxGeometry x="222" y="80" width="80" height="30" as="geometry" />
        </mxCell>
        <mxCell id="DeZwMJjWuen-2JSqgglJ-22" value="End Date" style="text;html=1;align=center;verticalAlign=middle;resizable=0;points=[];autosize=1;strokeColor=none;fillColor=none;" vertex="1" parent="1">
          <mxGeometry x="322" y="80" width="70" height="30" as="geometry" />
        </mxCell>
        <mxCell id="DeZwMJjWuen-2JSqgglJ-23" value="Models IDs" style="text;html=1;align=center;verticalAlign=middle;resizable=0;points=[];autosize=1;strokeColor=none;fillColor=none;" vertex="1" parent="1">
          <mxGeometry x="92" y="80" width="80" height="30" as="geometry" />
        </mxCell>
        <mxCell id="DeZwMJjWuen-2JSqgglJ-24" value="Attachments IDs" style="text;html=1;align=center;verticalAlign=middle;resizable=0;points=[];autosize=1;strokeColor=none;fillColor=none;" vertex="1" parent="1">
          <mxGeometry x="422" y="80" width="110" height="30" as="geometry" />
        </mxCell>
        <mxCell id="DeZwMJjWuen-2JSqgglJ-32" value="" style="rounded=0;whiteSpace=wrap;html=1;" vertex="1" parent="1">
          <mxGeometry x="2" y="110" width="90" height="210" as="geometry" />
        </mxCell>
        <mxCell id="DeZwMJjWuen-2JSqgglJ-26" value="Example Export" style="text;html=1;align=center;verticalAlign=middle;resizable=0;points=[];autosize=1;strokeColor=none;fillColor=none;fontSize=10;" vertex="1" parent="1">
          <mxGeometry x="2" y="110" width="90" height="30" as="geometry" />
        </mxCell>
        <mxCell id="DeZwMJjWuen-2JSqgglJ-33" value="" style="rounded=0;whiteSpace=wrap;html=1;" vertex="1" parent="1">
          <mxGeometry x="92" y="110" width="130" height="210" as="geometry" />
        </mxCell>
        <mxCell id="DeZwMJjWuen-2JSqgglJ-34" value="" style="rounded=0;whiteSpace=wrap;html=1;" vertex="1" parent="1">
          <mxGeometry x="222" y="110" width="100" height="210" as="geometry" />
        </mxCell>
        <mxCell id="DeZwMJjWuen-2JSqgglJ-27" value="Invoice, Country" style="text;html=1;align=center;verticalAlign=middle;resizable=0;points=[];autosize=1;strokeColor=none;fillColor=none;" vertex="1" parent="1">
          <mxGeometry x="92" y="110" width="110" height="30" as="geometry" />
        </mxCell>
        <mxCell id="DeZwMJjWuen-2JSqgglJ-35" value="" style="rounded=0;whiteSpace=wrap;html=1;" vertex="1" parent="1">
          <mxGeometry x="322" y="110" width="101.5" height="210" as="geometry" />
        </mxCell>
        <mxCell id="DeZwMJjWuen-2JSqgglJ-28" value="01.01.1997" style="text;html=1;align=center;verticalAlign=middle;resizable=0;points=[];autosize=1;strokeColor=none;fillColor=none;" vertex="1" parent="1">
          <mxGeometry x="222" y="110" width="80" height="30" as="geometry" />
        </mxCell>
        <mxCell id="DeZwMJjWuen-2JSqgglJ-29" value="01.01.1997" style="text;html=1;align=center;verticalAlign=middle;resizable=0;points=[];autosize=1;strokeColor=none;fillColor=none;" vertex="1" parent="1">
          <mxGeometry x="322" y="110" width="80" height="30" as="geometry" />
        </mxCell>
        <mxCell id="DeZwMJjWuen-2JSqgglJ-30" value="11 Attachments" style="text;html=1;align=center;verticalAlign=middle;resizable=0;points=[];autosize=1;strokeColor=none;fillColor=none;" vertex="1" parent="1">
          <mxGeometry x="423.5" y="110" width="110" height="30" as="geometry" />
        </mxCell>
        <mxCell id="DeZwMJjWuen-2JSqgglJ-37" value="Wizard" style="rounded=0;whiteSpace=wrap;html=1;fillColor=#dae8fc;strokeColor=#6c8ebf;" vertex="1" parent="1">
          <mxGeometry x="7" y="50" width="75" height="20" as="geometry" />
        </mxCell>
        <mxCell id="DeZwMJjWuen-2JSqgglJ-38" value="" style="endArrow=none;html=1;rounded=0;exitX=0.005;exitY=0.144;exitDx=0;exitDy=0;exitPerimeter=0;entryX=1;entryY=0.25;entryDx=0;entryDy=0;" edge="1" parent="1" source="DeZwMJjWuen-2JSqgglJ-32" target="DeZwMJjWuen-2JSqgglJ-18">
          <mxGeometry width="50" height="50" relative="1" as="geometry">
            <mxPoint x="172" y="270" as="sourcePoint" />
            <mxPoint x="222" y="220" as="targetPoint" />
          </mxGeometry>
        </mxCell>
      </root>
    </mxGraphModel>
  </diagram>
</mxfile>
